#N canvas 517 24 1255 942 12;
#X declare -path else;
#N canvas 422 139 1199 663 composition 1;
#N canvas 1033 257 721 534 TEMPO 0;
#X obj 22 5 inlet bpm;
#X obj 153 33 inlet tempos;
#X obj 22 151 *, f 12;
#X obj 153 58 t b f;
#X obj 22 232 outlet;
#X obj 22 105 * 1000;
#X obj 22 176 int;
#X obj 22 30 t 60 f, f 9;
#X obj 22 80 /, f 9;
#X msg 22 55 60;
#X connect 0 0 7 0;
#X connect 1 0 3 0;
#X connect 2 0 6 0;
#X connect 3 0 2 0;
#X connect 3 1 2 1;
#X connect 5 0 2 0;
#X connect 6 0 4 0;
#X connect 7 0 9 0;
#X connect 7 1 8 1;
#X connect 8 0 5 0;
#X connect 9 0 8 0;
#X restore 32 72 pd TEMPO;
#X obj 32 185 print;
#X msg 32 39 80;
#X msg 85 39 26;
#X connect 0 0 1 0;
#X connect 2 0 0 0;
#X connect 3 0 0 1;
#X restore 691 201 pd composition;
#X obj 690 225 declare -path else;
#X obj 48 393 iterate;
#X obj 48 456 combine;
#X obj 493 231 unpack f f f, f 18;
#X obj 419 306 metro;
#X obj 480 307 metro;
#X obj 545 306 metro;
#X obj 419 231 tgl 43 0 empty empty empty 0 -10 0 12 #fcfcfc #000000 #000000 0 1;
#X obj 419 342 bng 37 250 50 0 empty empty empty 0 -10 0 12 #fcfcfc #000000 #000000;
#X obj 480 343 bng 37 250 50 0 empty empty empty 0 -10 0 12 #fcfcfc #000000 #000000;
#X obj 545 343 bng 37 250 50 0 empty empty empty 0 -10 0 12 #fcfcfc #000000 #000000;
#X obj 419 189 t b l, f 14;
#X obj 419 659 dac~, f 17;
#X obj 419 445 makenote 100 1000;
#X msg 419 393 60;
#X msg 480 393 67;
#X msg 545 393 71;
#X msg 419 523 \$1 \$2;
#X obj 419 497 pack f f;
#N canvas 0 50 450 250 (subpatch) 0;
#X text 0 0 plugdatainfo <?xml version="1.0" encoding="UTF-8"?> <plugdatainfo><InfoObj ID="16.L....L..........B....." Updated="0" Segmented="1" Path="48......D..........Z.....D...fF.....A...7r+++ep....O6+++mJ...f19+++"/><InfoObj ID="16.E....f..........A....." Updated="0" Segmented="1" Path="32......D..........Q.........PD..........B...."/><InfoObj ID="16.F....f..........A....." Updated="0" Segmented="1" Path="32......D..........Q....zC...PD....8....DB...."/><InfoObj ID="16.G....f..........A....." Updated="0" Segmented="1" Path="32......D..........Q....rG...PD....6A...DB...."/><InfoObj ID="16.E....P....P.....A....." Updated="0" Segmented="1" Path="32......D..........b.....9+++OG....f++++aC...."/><InfoObj ID="16.F....P....P.....B....." Updated="0" Segmented="1" Path="32......D..........b....j9+++OG....o++++eC...."/><InfoObj ID="16.G....P....P.....C....." Updated="0" Segmented="1" Path="32......D..........b....H++++OG....x++++eC...."/><InfoObj ID="16.T....bA.........A....." Updated="0" Segmented="1" Path="32......D..........j....Hx+++OI....h7+++KC...."/><InfoObj ID="16.N....DA.........A....." Updated="0" Segmented="1" Path="32......D..........P....j3+++OD....I9++++A...."/><InfoObj ID="16.N.....A.........A....." Updated="0" Segmented="1" Path="32......D..........P....b7+++OD....G+++++A...."/><InfoObj ID="16.N....7..........A....." Updated="0" Segmented="1" Path="32......D..........P..........D.........7A...."/><InfoObj ID="16.S....3....P.....D....." Updated="0" Segmented="1" Path="32......D..........P....n6+++OD....59++++A...."/><InfoObj ID="16.H....7A.........B....." Updated="0" Segmented="1" Path="48......D..........T....DM....E....QC...fn+++u4....H5+++aN...Pj9+++"/><InfoObj ID="16.a....7A.........B....." Updated="0" Segmented="1" Path="48......D..........Q....D8+++eD....Q++++Cu+++O.....v6+++C....fA++++"/><InfoObj ID="16.X....nA.........A....." Updated="0" Segmented="1" Path="32......D..........L....rN....C....qC...XA...."/><InfoObj ID="16.e....nA.........A....." Updated="0" Segmented="1" Path="32......D..........6....3L...vN....NC....K...."/><InfoObj ID="16.b....zA...f.....A....." Updated="0" Segmented="1" Path="32......D..........e.....9++++G....f++++2C...."/><InfoObj ID="16.H....HB.........B....." Updated="0" Segmented="1" Path="64......D..........3....bJ....N....mB...Tu+++ez....06+++GM....h9+++lC...fn+++u4....Q5+++C"/><InfoObj ID="16.a....HB.........B....." Updated="0" Segmented="1" Path="48......D..........b....n8+++OG....Z++++Kt+++O.....h6+++C.....89+++"/><InfoObj ID="16.b....DB.........A....." Updated="0" Segmented="1" Path="32......D..........6....3L...vN....NC....K...."/><InfoObj ID="16.a....DB.........A....." Updated="0" Segmented="1" Path="32......D..........w....zH...PL....MB...DI...."/><InfoObj ID="16.X....DB.........A....." Updated="0" Segmented="1" Path="32......D..........T....rN....E....qC...XB...."/><InfoObj ID="16.H....LB.........B....." Updated="0" Segmented="1" Path="48......D..........DA...7L....Q....OC...zl+++u4....s4+++aN...fd9+++"/><InfoObj ID="16.a....LB.........B....." Updated="0" Segmented="1" Path="48......D..........W....n8++++E....Z++++Cs+++O.....P6+++C....v69+++"/></plugdatainfo>;
#X coords 0 1 100 -1 1 1 1;
#X restore 0 0 graph;
#X obj 419 568 sfont~, f 31;
#X obj 642 459 openpanel;
#X obj 642 383 bng 64 250 50 0 empty empty empty 17 7 0 10 #dcdcdc #000000 #000000;
#X msg 642 497 open \$1;
#X obj 230 229 sum;
#X obj 230 258 nbx 12 46 -1e+37 1e+37 0 0 empty empty empty 0 -8 0 10 #ffffff #5a5a5a #5a5a5a 0 256;
#X obj 189 383 metro 1;
#X obj 189 348 tgl 25 0 empty empty empty 17 7 0 10 #ffffff #000000 #5a5a5a 0 1;
#X obj 254 379 bng 25 250 50 0 empty empty empty 17 7 0 10 #ffffff #000000 #5a5a5a;
#X obj 189 523 nbx 15 46 -1e+37 1e+37 0 0 empty empty empty 0 -8 0 10 #ffffff #5a5a5a #5a5a5a 0 256;
#X obj 516 624 giga.rev~;
#X obj 419 624 giga.rev~;
#X obj 48 553 display;
#X obj 189 465 count;
#X msg 254 412 0, f 5;
#X obj 189 601 sel 12000;
#X msg 48 182 5 6 7, f 7;
#X obj 48 423 * 200;
#X obj 419 11 nbx 14 38 -1e+37 1e+37 0 0 empty empty empty 0 -8 0 10 #ffffff #5a5a5a #5a5a5a 0 256;
#X obj 419 79 / 13, f 8;
#X obj 484 79 / 21, f 8;
#X obj 419 123 pack f f f, f 22;
#X obj 556 79 / 1, f 8;
#X connect 2 0 38 0;
#X connect 3 0 12 0;
#X connect 3 0 33 0;
#X connect 4 0 5 1;
#X connect 4 1 6 1;
#X connect 4 2 7 1;
#X connect 5 0 9 0;
#X connect 6 0 10 0;
#X connect 7 0 11 0;
#X connect 8 0 5 0;
#X connect 8 0 6 0;
#X connect 8 0 7 0;
#X connect 9 0 15 0;
#X connect 10 0 16 0;
#X connect 11 0 17 0;
#X connect 12 0 8 0;
#X connect 12 1 4 0;
#X connect 14 0 19 0;
#X connect 14 1 19 1;
#X connect 15 0 14 0;
#X connect 16 0 14 0;
#X connect 17 0 14 0;
#X connect 18 0 21 0;
#X connect 19 0 18 0;
#X connect 21 0 32 0;
#X connect 21 1 31 0;
#X connect 22 0 24 0;
#X connect 23 0 22 0;
#X connect 24 0 21 0;
#X connect 25 0 26 0;
#X connect 27 0 34 0;
#X connect 28 0 27 0;
#X connect 29 0 35 0;
#X connect 30 0 36 0;
#X connect 31 0 13 1;
#X connect 32 0 13 0;
#X connect 34 0 30 0;
#X connect 35 0 34 0;
#X connect 36 0 8 0;
#X connect 36 0 28 0;
#X connect 37 0 2 0;
#X connect 37 0 25 0;
#X connect 37 0 29 0;
#X connect 37 0 28 0;
#X connect 38 0 3 0;
#X connect 39 0 40 0;
#X connect 39 0 41 0;
#X connect 39 0 43 0;
#X connect 40 0 42 0;
#X connect 41 0 42 1;
#X connect 42 0 12 0;
#X connect 43 0 42 2;
