#N canvas 555 24 956 946 12;
#X declare -path else;
#X declare -path cyclone;
#N canvas 519 187 1159 725 (subpatch) 1;
#X obj 22 269 s loadbang;
#X obj 22 23 bng 35 250 50 0 empty empty empty 0 -10 0 12 #7c7c7c #ff0400 #000000;
#N canvas 0 50 450 250 (subpatch) 0;
#X text 0 0 plugdatainfo <?xml version="1.0" encoding="UTF-8"?> <plugdatainfo/>;
#X coords 0 1 100 -1 1 1 1;
#X restore 0 0 graph;
#X obj 295 260 s load-python-func;
#X obj 22 211 delay 100 1 msec;
#X obj 22 161 t b b b b, f 59;
#X obj 432 221 s save_pitches;
#X msg 432 189 1;
#X obj 22 98 spigot;
#X obj 95 18 loadbang;
#X msg 95 43 1;
#X msg 158 209 0;
#X obj 113 124 s zerar;
#X obj 113 99 bng 20 250 50 0 empty empty empty 0 -10 0 12 #fcfcfc #000000 #000000;
#X obj 171 99 bng 20 250 50 0 empty empty empty 0 -10 0 12 #fcfcfc #000000 #000000;
#X obj 171 124 s reload;
#X connect 1 0 8 0;
#X connect 1 0 13 0;
#X connect 1 0 14 0;
#X connect 4 0 0 0;
#X connect 5 0 4 0;
#X connect 5 1 11 0;
#X connect 5 2 3 0;
#X connect 5 3 7 0;
#X connect 7 0 6 0;
#X connect 8 0 5 0;
#X connect 9 0 10 0;
#X connect 10 0 8 1;
#X connect 11 0 8 1;
#X connect 13 0 12 0;
#X connect 14 0 15 0;
#X coords 0 -1 1 1 40 42 1 20 20;
#X restore 12 3 pd;
#X text 53 14 <= CLICK HERE TO START;
#N canvas 313 151 1471 800 (subpatch) 1;
#X msg 31 82 run;
#X obj 31 157 py4pd;
#X obj 31 19 r loadbang;
#X msg 215 48 set main my_ip;
#N canvas 0 50 450 250 (subpatch) 0;
#X text 0 0 plugdatainfo <?xml version="1.0" encoding="UTF-8"?> <plugdatainfo/>;
#X coords 0 1 100 -1 1 1 1;
#X restore 0 0 graph;
#X obj 215 20 r load-python-func;
#X obj 103 274 else/display;
#X obj 103 171 initmess Use the Browser!;
#X msg 329 131 start;
#X msg 382 131 stop;
#X obj 329 171 pd-server/server 8090;
#X obj 425 100 loadbang;
#X msg 425 131 ssl 1;
#X obj 382 45 inlet;
#X obj 329 201 route peaks, f 42;
#X obj 436 265 list length;
#X obj 329 226 t a a b, f 31;
#X obj 436 340 tgl 20 0 empty empty empty 0 -10 0 12 #fcfcfc #000000 #000000 0 1;
#X obj 436 315 expr if($f1 > 0 \, 1 \, 0);
#X obj 329 306 spigot;
#X obj 329 331 s FFTFreq;
#X obj 543 281 outlet;
#X obj 31 228 fromsymbol;
#X obj 31 344 outlet;
#X connect 0 0 1 0;
#X connect 1 0 22 0;
#X connect 2 0 0 0;
#X connect 2 0 8 0;
#X connect 3 0 1 0;
#X connect 5 0 3 0;
#X connect 6 0 23 0;
#X connect 7 0 6 0;
#X connect 8 0 10 0;
#X connect 9 0 10 0;
#X connect 10 0 14 0;
#X connect 11 0 12 0;
#X connect 12 0 10 0;
#X connect 13 0 9 0;
#X connect 14 0 16 0;
#X connect 15 0 18 0;
#X connect 16 0 19 0;
#X connect 16 1 15 0;
#X connect 16 2 21 0;
#X connect 17 0 19 1;
#X connect 18 0 17 0;
#X connect 19 0 20 0;
#X connect 22 0 6 0;
#X coords 0 -1 1 1 190 30 2 100 270;
#X restore 15 97 pd;
#N canvas 0 50 450 250 (subpatch) 0;
#X text 0 0 plugdatainfo <?xml version="1.0" encoding="UTF-8"?> <plugdatainfo/>;
#X coords 0 1 100 -1 1 1 1;
#X restore 0 0 graph;
#N canvas 42 142 450 300 config 1;
#X obj 18 56 declare -path else;
#X obj 18 78 declare -path cyclone;
#X restore 292 283 pd config;
#N canvas 1166 158 590 499 (subpatch) 1;
#X obj 13 12 key;
#X obj 13 37 sel 32;
#X obj 13 117 display;
#X msg 13 62 SPACE;
#X obj 60 118 nbx 3 22 -1e+37 1e+37 0 0 empty empty empty 0 -10 0 12 #fcfcfc #000000 #000000 0 256;
#X obj 60 89 count;
#X obj 60 187 outlet;
#X obj 79 155 s NumberOfSpaces;
#X obj 87 18 r loadbang;
#X obj 181 37 loadbang;
#X msg 181 62 SPACE;
#X msg 87 43 0;
#X obj 195 105 r test;
#X obj 245 164 r zerar;
#N canvas 0 50 450 250 (subpatch) 0;
#X text 0 0 plugdatainfo <?xml version="1.0" encoding="UTF-8"?> <plugdatainfo/>;
#X coords 0 1 100 -1 1 1 1;
#X restore 0 0 graph;
#X connect 0 0 1 0;
#X connect 1 0 3 0;
#X connect 1 0 5 0;
#X connect 3 0 2 0;
#X connect 4 0 6 0;
#X connect 4 0 7 0;
#X connect 5 0 4 0;
#X connect 8 0 11 0;
#X connect 9 0 10 0;
#X connect 10 0 2 0;
#X connect 11 0 5 0;
#X connect 12 0 4 0;
#X connect 13 0 11 0;
#X coords 0 -1 1 1 100 27 1 10 115;
#X restore 117 283 pd;
#N canvas 434 97 1285 894 SpectralImage 1;
#X obj 353 6 inlet;
#X obj 15 420 py4pd;
#X obj 15 83 spigot;
#X obj 80 7 r done;
#N canvas 387 288 1013 432 clean 0;
#X obj 4 5 inlet;
#X obj 4 179 py4pd;
#X msg 4 31 run;
#X msg 77 137 reload;
#X obj 77 107 r reload;
#X obj 86 11 r load-python-func;
#X msg 86 45 set main clear_notesAndAmps;
#X connect 0 0 2 0;
#X connect 2 0 1 0;
#X connect 3 0 1 0;
#X connect 4 0 3 0;
#X connect 5 0 6 0;
#X connect 6 0 1 0;
#X restore 504 263 pd clean;
#X obj 26 368 r load-python-func;
#X msg 353 238 1;
#X obj 353 263 s done;
#X obj 80 257 s run_py_flute;
#X obj 15 4 inlet;
#X obj 80 32 t f f;
#X obj 80 112 sel 0;
#X obj 353 213 t b b b, f 22;
#X msg 429 325 0;
#X obj 429 350 s done;
#X obj 122 61 outlet;
#X obj 429 300 delay 300 1 msec;
#X obj 353 125 spigot, f 17;
#X obj 469 93 tgl 20 0 empty empty empty 0 -10 0 12 #fcfcfc #000000 #000000 0 1;
#X obj 80 151 t b b, f 15;
#X obj 469 13 r save_pitches;
#X obj 182 296 s save_pitches;
#X msg 182 177 0;
#X obj 202 240 print RECEIVE_DATA;
#X msg 202 213 Desativado;
#X msg 15 331 run \$1 \$2;
#X msg 26 390 set main set_notesAndAmps;
#X msg 26 244 1 2;
#X connect 0 0 17 0;
#X connect 2 0 25 0;
#X connect 3 0 10 0;
#X connect 5 0 26 0;
#X connect 6 0 7 0;
#X connect 9 0 2 0;
#X connect 10 0 15 0;
#X connect 10 0 11 0;
#X connect 10 1 2 1;
#X connect 11 0 19 0;
#X connect 12 0 6 0;
#X connect 12 1 16 0;
#X connect 12 2 4 0;
#X connect 13 0 14 0;
#X connect 16 0 13 0;
#X connect 17 0 12 0;
#X connect 18 0 17 1;
#X connect 19 0 8 0;
#X connect 19 1 22 0;
#X connect 20 0 18 0;
#X connect 22 0 21 0;
#X connect 22 0 24 0;
#X connect 24 0 23 0;
#X connect 25 0 1 0;
#X connect 26 0 1 0;
#X connect 27 0 25 0;
#X restore 8 346 pd SpectralImage;
#X obj 117 313 bng 20 250 50 0 empty empty empty 0 -10 0 12 #fcfcfc #000000 #000000;
#N canvas 256 98 1530 887 (subpatch) 1;
#X obj 33 187 py4pd;
#X obj 33 331 outlet;
#X msg 33 264 \$1;
#X obj 260 11 r loadbang;
#X obj 104 304 else/display;
#N canvas 0 50 450 250 (subpatch) 0;
#X text 0 0 plugdatainfo <?xml version="1.0" encoding="UTF-8"?> <plugdatainfo/>;
#X coords 0 1 100 -1 1 1 1;
#X restore 0 0 graph;
#X obj 104 251 loadbang;
#X obj 33 11 r run_py_flute;
#X obj 138 11 r NumberOfSpaces;
#X msg 138 59 set run \$1;
#X msg 260 70 run 0;
#X msg 642 103 reload;
#X obj 642 73 r reload;
#X obj 339 11 r load-python-func;
#X obj 33 72 spigot;
#X obj 72 37 inlet;
#X msg 33 115 run 3;
#X obj 41 151 r py_gerenate_gestures;
#X msg 104 276 Press bang to start;
#X obj 260 188 s py_gerenate_gestures;
#X msg 339 71 set main ALL_gesto_geration;
#X obj 397 312 s save_pitches;
#X msg 397 232 1;
#X msg 434 264 Ativado;
#X obj 434 289 print RECEIVE_DATA;
#X connect 0 0 2 0;
#X connect 0 0 22 0;
#X connect 2 0 1 0;
#X connect 2 0 4 0;
#X connect 3 0 10 0;
#X connect 6 0 18 0;
#X connect 7 0 14 0;
#X connect 8 0 9 0;
#X connect 9 0 16 0;
#X connect 10 0 19 0;
#X connect 11 0 19 0;
#X connect 12 0 11 0;
#X connect 13 0 20 0;
#X connect 14 0 16 0;
#X connect 15 0 14 1;
#X connect 16 0 0 0;
#X connect 17 0 0 0;
#X connect 18 0 4 0;
#X connect 20 0 19 0;
#X connect 22 0 21 0;
#X connect 22 0 23 0;
#X connect 23 0 24 0;
#X coords 0 -1 1 1 225 30 2 100 300;
#X restore 223 368 pd;
#X obj 223 341 tgl 20 0 empty empty empty 0 -10 0 12 #fcfcfc #000000 #000000 0 1;
#X obj 15 62 bng 20 250 50 0 empty empty empty 0 -10 0 12 #fcfcfc #000000 #000000;
#X text 39 61 Stop Server;
#X obj 223 283 loadbang;
#X msg 223 308 1;
#X obj 8 283 r FFTFreq;
#X obj 8 316 zl iter 2;
#X obj 8 371 tgl 20 0 empty empty empty 0 -10 0 12 #fcfcfc #000000 #000000 0 1;
#X obj 198 140 bng 20 250 50 0 empty empty empty 0 -10 0 12 #fcfcfc #000000 #000000;
#X text 222 139 Receiving data from Sax FFT.;
#X text 244 342 Turn ON geration;
#X obj 15 132 print;
#X text 207 103 <= WEB ADDRESS;
#X connect 2 0 20 0;
#X connect 2 1 17 0;
#X connect 5 0 7 0;
#X connect 6 0 16 0;
#X connect 7 0 6 1;
#X connect 9 0 8 0;
#X connect 10 0 2 0;
#X connect 12 0 13 0;
#X connect 13 0 9 0;
#X connect 14 0 15 0;
#X connect 15 0 6 0;
