#N canvas 35 135 450 300 12;
#X declare -path else;
#X declare -path cyclone;
#N canvas 42 142 450 300 config 0;
#X obj 18 56 declare -path else;
#X obj 18 78 declare -path cyclone;
#X restore 320 185 pd config;
#N canvas 256 98 1530 887 (subpatch) 0;
#X obj 33 187 py4pd;
#X obj 33 331 outlet;
#X msg 33 264 \$1;
#X obj 260 11 r loadbang;
#X obj 104 304 else/display;
#N canvas 0 50 450 250 (subpatch) 0;
#X text 0 0 plugdatainfo <?xml version="1.0" encoding="UTF-8"?> <plugdatainfo/>;
#X coords 0 1 100 -1 1 1 1;
#X restore 0 0 graph;
#X obj 104 251 loadbang;
#X obj 33 11 r run_py_flute;
#X obj 138 11 r NumberOfSpaces;
#X msg 138 59 set run \$1;
#X msg 260 70 run 0;
#X msg 642 103 reload;
#X obj 642 73 r reload;
#X obj 339 11 r load-python-func;
#X obj 33 72 spigot;
#X obj 72 37 inlet;
#X msg 33 115 run 5;
#X obj 41 151 r py_gerenate_gestures;
#X msg 104 276 Press bang to start;
#X obj 260 188 s py_gerenate_gestures;
#X msg 339 71 set main ALL_gesto_geration;
#X obj 397 312 s save_pitches;
#X msg 397 232 1;
#X msg 434 264 Ativado;
#X obj 434 289 print RECEIVE_DATA;
#X connect 0 0 2 0;
#X connect 0 0 22 0;
#X connect 2 0 1 0;
#X connect 2 0 4 0;
#X connect 3 0 10 0;
#X connect 6 0 18 0;
#X connect 7 0 14 0;
#X connect 8 0 9 0;
#X connect 9 0 16 0;
#X connect 10 0 19 0;
#X connect 11 0 19 0;
#X connect 12 0 11 0;
#X connect 13 0 20 0;
#X connect 14 0 16 0;
#X connect 15 0 14 1;
#X connect 16 0 0 0;
#X connect 17 0 0 0;
#X connect 18 0 4 0;
#X connect 20 0 19 0;
#X connect 22 0 21 0;
#X connect 22 0 23 0;
#X connect 23 0 24 0;
#X coords 0 -1 1 1 225 30 2 100 300;
#X restore 251 270 pd;
#X obj 251 243 tgl 20 0 empty empty empty 0 -10 0 12 #fcfcfc #000000 #000000 0 1;
#X obj 251 185 loadbang;
#X text 272 244 Turn ON geration;
#X msg 251 210 0;
#X connect 2 0 1 0;
#X connect 3 0 5 0;
#X connect 5 0 2 0;
