#N canvas 42 142 450 300 12;
#N canvas 224 294 991 465 python-threads 0;
#X obj 8 8 inlet;
#X obj 8 45 zl iter 2;
#X msg 8 69 pitches \$1 \$2;
#N canvas 191 189 1455 823 Flute-Thread 0;
#X msg 67 102 pd~ stop;
#X obj 9 16 inlet;
#X obj 9 313 outlet;
#X msg 137 102 pd~ start -noaudio ./flute.pd, f 41;
#X obj 178 157 r loadbang;
#X msg 178 182 loadbang bang;
#X obj 284 151 r load-python-func;
#X obj 459 157 r reload;
#X msg 459 182 reload bang;
#X obj 387 221 r run_py_flute;
#X msg 387 246 run_py_flute bang;
#X obj 531 226 r NumberOfSpaces;
#X msg 531 285 NumberOfSpaces \$1;
#X msg 284 182 load-python-func bang;
#X obj 54 31 loadbang;
#X msg 54 63 pd~ start -nogui -noaudio ./flute.pd, f 60;
#X obj 295 317 r espaco;
#X msg 295 342 espaco bang;
#X obj 9 288 pd~ -ninsig 0 -noutsig 0 -fifo 2;
#X connect 0 0 18 0;
#X connect 1 0 18 0;
#X connect 3 0 18 0;
#X connect 4 0 5 0;
#X connect 5 0 18 0;
#X connect 6 0 13 0;
#X connect 7 0 8 0;
#X connect 8 0 18 0;
#X connect 9 0 10 0;
#X connect 10 0 18 0;
#X connect 11 0 12 0;
#X connect 12 0 18 0;
#X connect 13 0 18 0;
#X connect 14 0 15 0;
#X connect 15 0 18 0;
#X connect 16 0 17 0;
#X connect 17 0 18 0;
#X connect 18 0 2 0;
#X restore 8 144 pd Flute-Thread;
#N canvas 111 86 1455 823 Sax-Thread 0;
#X msg 67 102 pd~ stop;
#X obj 9 16 inlet;
#X obj 9 313 outlet;
#X obj 9 288 pd~ -ninsig 0 -noutsig 0;
#X obj 178 157 r loadbang;
#X msg 178 182 loadbang bang;
#X obj 284 151 r load-python-func;
#X obj 459 157 r reload;
#X msg 459 182 reload bang;
#X obj 387 221 r run_py_flute;
#X msg 387 246 run_py_flute bang;
#X obj 531 226 r NumberOfSpaces;
#X msg 531 285 NumberOfSpaces \$1;
#X msg 284 182 load-python-func bang;
#X obj 54 31 loadbang;
#X obj 295 317 r espaco;
#X msg 295 342 espaco bang;
#X msg 54 63 pd~ start -nogui -noaudio ./sax.pd, f 60;
#X msg 137 102 pd~ start -noaudio ./sax.pd, f 41;
#X connect 0 0 3 0;
#X connect 1 0 3 0;
#X connect 3 0 2 0;
#X connect 4 0 5 0;
#X connect 5 0 3 0;
#X connect 6 0 13 0;
#X connect 7 0 8 0;
#X connect 8 0 3 0;
#X connect 9 0 10 0;
#X connect 10 0 3 0;
#X connect 11 0 12 0;
#X connect 12 0 3 0;
#X connect 13 0 3 0;
#X connect 14 0 17 0;
#X connect 15 0 16 0;
#X connect 16 0 3 0;
#X connect 17 0 3 0;
#X connect 18 0 3 0;
#X restore 130 145 pd Sax-Thread;
#N canvas 111 86 1455 823 Guitar-Thread 0;
#X msg 67 102 pd~ stop;
#X obj 9 16 inlet;
#X obj 9 313 outlet;
#X obj 9 288 pd~ -ninsig 0 -noutsig 0;
#X obj 178 157 r loadbang;
#X msg 178 182 loadbang bang;
#X obj 284 151 r load-python-func;
#X obj 459 157 r reload;
#X msg 459 182 reload bang;
#X obj 387 221 r run_py_flute;
#X msg 387 246 run_py_flute bang;
#X obj 531 226 r NumberOfSpaces;
#X msg 531 285 NumberOfSpaces \$1;
#X msg 284 182 load-python-func bang;
#X obj 54 31 loadbang;
#X obj 295 317 r espaco;
#X msg 295 342 espaco bang;
#X msg 137 102 pd~ start -noaudio ./guitar.pd, f 41;
#X msg 54 63 pd~ start -nogui -noaudio ./guitar.pd, f 60;
#X connect 0 0 3 0;
#X connect 1 0 3 0;
#X connect 3 0 2 0;
#X connect 4 0 5 0;
#X connect 5 0 3 0;
#X connect 6 0 13 0;
#X connect 7 0 8 0;
#X connect 8 0 3 0;
#X connect 9 0 10 0;
#X connect 10 0 3 0;
#X connect 11 0 12 0;
#X connect 12 0 3 0;
#X connect 13 0 3 0;
#X connect 14 0 18 0;
#X connect 15 0 16 0;
#X connect 16 0 3 0;
#X connect 17 0 3 0;
#X connect 18 0 3 0;
#X restore 233 145 pd Guitar-Thread;
#N canvas 111 86 1455 823 Cello-Thread 0;
#X msg 67 102 pd~ stop;
#X obj 9 16 inlet;
#X obj 9 313 outlet;
#X obj 9 288 pd~ -ninsig 0 -noutsig 0;
#X obj 178 157 r loadbang;
#X msg 178 182 loadbang bang;
#X obj 284 151 r load-python-func;
#X obj 459 157 r reload;
#X msg 459 182 reload bang;
#X obj 387 221 r run_py_flute;
#X msg 387 246 run_py_flute bang;
#X obj 531 226 r NumberOfSpaces;
#X msg 531 285 NumberOfSpaces \$1;
#X msg 284 182 load-python-func bang;
#X obj 54 31 loadbang;
#X obj 295 317 r espaco;
#X msg 295 342 espaco bang;
#X msg 54 63 pd~ start -nogui -noaudio ./cello.pd, f 60;
#X msg 137 102 pd~ start -noaudio ./cello.pd, f 41;
#X connect 0 0 3 0;
#X connect 1 0 3 0;
#X connect 3 0 2 0;
#X connect 4 0 5 0;
#X connect 5 0 3 0;
#X connect 6 0 13 0;
#X connect 7 0 8 0;
#X connect 8 0 3 0;
#X connect 9 0 10 0;
#X connect 10 0 3 0;
#X connect 11 0 12 0;
#X connect 12 0 3 0;
#X connect 13 0 3 0;
#X connect 14 0 17 0;
#X connect 15 0 16 0;
#X connect 16 0 3 0;
#X connect 17 0 3 0;
#X connect 18 0 3 0;
#X restore 354 145 pd Cello-Thread;
#X obj 8 169 print Fl;
#X obj 130 170 print Sx;
#X obj 233 170 print Gt;
#X obj 354 170 print Ce;
#X connect 0 0 1 0;
#X connect 1 0 2 0;
#X connect 2 0 3 0;
#X connect 2 0 4 0;
#X connect 2 0 5 0;
#X connect 2 0 6 0;
#X connect 3 0 7 0;
#X connect 4 0 8 0;
#X connect 5 0 9 0;
#X connect 6 0 10 0;
#X restore 29 7 pd python-threads;
