#N canvas 499 4 1276 902 12;
#X declare -path else;
#X declare -path cyclone;
#N canvas 519 187 1348 725 (subpatch) 0;
#X obj 22 269 s loadbang;
#X obj 22 23 bng 35 250 50 0 empty empty empty 0 -10 0 12 #7c7c7c #ff0400 #000000;
#N canvas 0 50 450 250 (subpatch) 0;
#X text 0 0 plugdatainfo <?xml version="1.0" encoding="UTF-8"?> <plugdatainfo/>;
#X coords 0 1 100 -1 1 1 1;
#X restore 0 0 graph;
#X obj 295 260 s load-python-func;
#X obj 22 211 delay 100 1 msec;
#X obj 22 161 t b b b b, f 59;
#X obj 434 261 s save_pitches;
#X msg 434 229 1;
#X obj 22 98 spigot;
#X obj 95 18 loadbang;
#X msg 95 43 1;
#X msg 158 209 0;
#X obj 113 124 s zerar;
#X obj 113 99 bng 20 250 50 0 empty empty empty 0 -10 0 12 #fcfcfc #000000 #000000;
#X obj 171 99 bng 20 250 50 0 empty empty empty 0 -10 0 12 #fcfcfc #000000 #000000;
#X obj 171 124 s reload;
#X msg 545 224 \; pd dsp 1;
#X obj 541 149 loadbang;
#X connect 1 0 8 0;
#X connect 1 0 13 0;
#X connect 1 0 14 0;
#X connect 4 0 0 0;
#X connect 5 0 4 0;
#X connect 5 1 11 0;
#X connect 5 2 3 0;
#X connect 5 3 7 0;
#X connect 7 0 6 0;
#X connect 8 0 5 0;
#X connect 9 0 10 0;
#X connect 10 0 8 1;
#X connect 11 0 8 1;
#X connect 13 0 12 0;
#X connect 14 0 15 0;
#X connect 17 0 16 0;
#X coords 0 -1 1 1 40 42 1 20 20;
#X restore 12 9 pd;
#X text 53 20 <= CLICK HERE TO START;
#N canvas 313 151 1471 800 (subpatch) 0;
#X msg 31 82 run;
#X obj 31 157 py4pd;
#X obj 31 19 r loadbang;
#X msg 215 48 set main my_ip;
#N canvas 0 50 450 250 (subpatch) 0;
#X text 0 0 plugdatainfo <?xml version="1.0" encoding="UTF-8"?> <plugdatainfo/>;
#X coords 0 1 100 -1 1 1 1;
#X restore 0 0 graph;
#X obj 215 20 r load-python-func;
#X obj 103 274 else/display;
#X obj 103 171 initmess Use the Browser!;
#X msg 329 131 start;
#X msg 382 131 stop;
#X obj 329 168 pd-server/server 8090;
#X obj 425 100 loadbang;
#X msg 425 131 ssl 1;
#X obj 382 45 inlet;
#X obj 329 221 route peaks, f 42;
#X obj 436 276 list length;
#X obj 329 246 t a a b, f 31;
#X obj 436 360 tgl 20 0 empty empty empty 0 -10 0 12 #fcfcfc #000000 #000000 0 1;
#X obj 436 335 expr if($f1 > 0 \, 1 \, 0);
#X obj 329 326 spigot;
#X obj 329 351 s FFTFreq;
#X obj 543 278 outlet;
#X obj 31 228 fromsymbol;
#X obj 31 344 outlet;
#X obj 341 196 s serverData;
#X msg 205 116 thread 0;
#X connect 0 0 1 0;
#X connect 1 0 22 0;
#X connect 2 0 0 0;
#X connect 2 0 8 0;
#X connect 3 0 1 0;
#X connect 5 0 3 0;
#X connect 6 0 23 0;
#X connect 7 0 6 0;
#X connect 8 0 10 0;
#X connect 9 0 10 0;
#X connect 10 0 14 0;
#X connect 10 0 24 0;
#X connect 11 0 12 0;
#X connect 12 0 10 0;
#X connect 13 0 9 0;
#X connect 14 0 16 0;
#X connect 15 0 18 0;
#X connect 16 0 19 0;
#X connect 16 1 15 0;
#X connect 16 2 21 0;
#X connect 17 0 19 1;
#X connect 18 0 17 0;
#X connect 19 0 20 0;
#X connect 22 0 6 0;
#X connect 25 0 1 0;
#X coords 0 -1 1 1 210 30 2 100 270;
#X restore 15 97 pd;
#N canvas 0 50 450 250 (subpatch) 0;
#X text 0 0 plugdatainfo <?xml version="1.0" encoding="UTF-8"?> <plugdatainfo/>;
#X coords 0 1 100 -1 1 1 1;
#X restore 0 0 graph;
#N canvas 440 77 1185 823 (subpatch) 0;
#X obj 13 12 key;
#X obj 13 37 sel 32;
#X obj 13 117 display;
#X msg 13 62 SPACE;
#X obj 60 118 nbx 3 22 -1e+37 1e+37 0 0 empty empty empty 0 -10 0 12 #fcfcfc #000000 #000000 0 256;
#X obj 60 89 count;
#X obj 17 278 outlet;
#X obj 150 274 s NumberOfSpaces;
#X obj 87 8 r loadbang;
#X obj 181 37 loadbang;
#X msg 181 62 SPACE;
#X msg 87 58 0;
#X obj 331 49 r test;
#X obj 98 35 r zerar;
#N canvas 0 50 450 250 (subpatch) 0;
#X text 0 0 plugdatainfo <?xml version="1.0" encoding="UTF-8"?> <plugdatainfo/>;
#X coords 0 1 100 -1 1 1 1;
#X restore 0 0 graph;
#X obj 95 314 s espaco;
#X obj 95 274 bng 20 250 50 0 empty empty empty 0 -10 0 12 #fcfcfc #000000 #000000;
#X obj 161 352 print ECOS;
#X msg 161 314 _______________;
#X obj 267 164 spigot;
#X obj 110 119 tgl 20 0 empty empty empty 0 -10 0 12 #fcfcfc #000000 #000000 0 1;
#X text 132 118 On/Off;
#X obj 340 123 loadmess 1;
#X connect 0 0 1 0;
#X connect 1 0 3 0;
#X connect 1 0 19 0;
#X connect 3 0 2 0;
#X connect 4 0 6 0;
#X connect 4 0 7 0;
#X connect 4 0 16 0;
#X connect 5 0 4 0;
#X connect 8 0 11 0;
#X connect 9 0 10 0;
#X connect 10 0 2 0;
#X connect 11 0 5 0;
#X connect 12 0 4 0;
#X connect 13 0 11 0;
#X connect 16 0 15 0;
#X connect 16 0 18 0;
#X connect 18 0 17 0;
#X connect 19 0 5 0;
#X connect 20 0 19 1;
#X connect 22 0 20 0;
#X coords 0 -1 1 1 170 27 1 10 115;
#X restore 451 6 pd;
#X obj 451 36 bng 20 250 50 0 empty empty empty 0 -10 0 12 #fcfcfc #000000 #000000;
#X obj 15 62 bng 20 250 50 0 empty empty empty 0 -10 0 12 #fcfcfc #000000 #000000;
#X text 39 61 Stop Server;
#X obj 8 186 r FFTFreq;
#X obj 218 140 bng 20 250 50 0 empty empty empty 0 -10 0 12 #fcfcfc #000000 #000000;
#X text 242 139 Receiving data from Sax FFT.;
#X text 226 103 <= WEB ADDRESS;
#X obj 15 139 print WEB;
#N canvas -1 31 1920 977 puredata 0;
#X obj 3 7 r serverData;
#X obj 3 250 outlet;
#X obj 3 178 unpack s f, f 11;
#X obj 3 127 fromsymbol;
#X obj 3 225 format Flute %s Done!;
#X obj 1 333 sel 1;
#X obj 1 363 s espacoFlute;
#X obj 187 253 outlet;
#X obj 187 181 unpack s f, f 11;
#X obj 187 130 fromsymbol;
#X obj 247 333 sel 1;
#X obj 187 228 format Sax %s Done!;
#X obj 247 363 s espacoSax;
#X obj 371 254 outlet;
#X obj 371 182 unpack s f, f 11;
#X obj 371 131 fromsymbol;
#X obj 493 333 sel 1;
#X obj 371 229 format Guitar %s Done!;
#X obj 493 363 s espacoGuitar;
#X obj 556 255 outlet;
#X obj 556 183 unpack s f, f 11;
#X obj 556 132 fromsymbol;
#X obj 742 333 sel 1;
#X obj 556 230 format Cello %s Done!;
#X obj 742 363 s espacoCello;
#X obj 3 92 route flute sax guitar cello fastGest, f 132;
#X obj 740 131 fromsymbol;
#X obj 740 178 s fastGesture;
#X obj 862 217 outlet;
#X obj 1 308 expr if($f1 > 2 && $f1 < 13 \, 1 \, 0);
#X obj 247 308 expr if($f1 > 2 && $f1 < 13 \, 1 \, 0);
#X obj 493 308 expr if($f1 > 2 && $f1 < 13 \, 1 \, 0);
#X obj 742 308 expr if($f1 > 2 && $f1 < 13 \, 1 \, 0);
#X connect 0 0 25 0;
#X connect 2 0 4 0;
#X connect 2 1 29 0;
#X connect 3 0 2 0;
#X connect 4 0 1 0;
#X connect 5 0 6 0;
#X connect 8 0 11 0;
#X connect 8 1 30 0;
#X connect 9 0 8 0;
#X connect 10 0 12 0;
#X connect 11 0 7 0;
#X connect 14 0 17 0;
#X connect 14 1 31 0;
#X connect 15 0 14 0;
#X connect 16 0 18 0;
#X connect 17 0 13 0;
#X connect 20 0 23 0;
#X connect 20 1 32 0;
#X connect 21 0 20 0;
#X connect 22 0 24 0;
#X connect 23 0 19 0;
#X connect 25 0 3 0;
#X connect 25 1 9 0;
#X connect 25 2 15 0;
#X connect 25 3 21 0;
#X connect 25 4 26 0;
#X connect 26 0 27 0;
#X connect 29 0 5 0;
#X connect 30 0 10 0;
#X connect 31 0 16 0;
#X connect 32 0 22 0;
#X restore 7 277 pd puredata;
#X f 87;
#X obj 7 305 display;
#N canvas -1 31 1920 977 python-threads 0;
#X obj 8 8 inlet;
#X obj 8 175 zl iter 2;
#X msg 8 199 pitches \$1 \$2;
#N canvas 404 44 1455 823 Flute-Thread 0;
#X msg 67 102 pd~ stop;
#X obj 9 16 inlet;
#X obj 9 389 outlet;
#X obj 178 157 r loadbang;
#X msg 178 182 loadbang bang;
#X obj 284 151 r load-python-func;
#X obj 459 157 r reload;
#X msg 459 182 reload bang;
#X obj 387 221 r run_py_flute;
#X msg 387 246 run_py_flute bang;
#X obj 531 215 r NumberOfSpaces;
#X msg 531 312 NumberOfSpaces \$1;
#X msg 284 182 load-python-func bang;
#X obj 54 31 loadbang;
#X msg 93 243 espaco bang;
#X obj 278 223 r espacoFlute;
#X msg 278 309 espaco bang;
#X obj 570 260 count;
#X obj 278 278 t b b;
#X obj 531 337 display;
#X obj 93 216 r espacoforFlute;
#X msg 54 63 pd~ start -nogui ./flute.pd, f 60;
#X msg 137 102 pd~ start ./flute.pd, f 41;
#X obj 9 364 pd~ -ninsig 1 -noutsig 1 -fifo 20;
#X connect 0 0 23 0;
#X connect 1 0 23 0;
#X connect 3 0 4 0;
#X connect 4 0 23 0;
#X connect 5 0 12 0;
#X connect 6 0 7 0;
#X connect 7 0 23 0;
#X connect 8 0 9 0;
#X connect 9 0 23 0;
#X connect 10 0 11 0;
#X connect 10 0 17 0;
#X connect 11 0 19 0;
#X connect 11 0 23 0;
#X connect 12 0 23 0;
#X connect 13 0 21 0;
#X connect 14 0 23 0;
#X connect 15 0 18 0;
#X connect 16 0 23 0;
#X connect 17 0 11 0;
#X connect 18 0 16 0;
#X connect 18 1 17 0;
#X connect 20 0 14 0;
#X connect 21 0 23 0;
#X connect 22 0 23 0;
#X connect 23 0 2 0;
#X restore 8 343 pd Flute-Thread;
#N canvas -1 31 1920 1016 Sax-Thread 0;
#X msg 67 102 pd~ stop;
#X obj 9 16 inlet;
#X obj 9 313 outlet;
#X obj 178 157 r loadbang;
#X msg 178 182 loadbang bang;
#X obj 284 151 r load-python-func;
#X obj 459 157 r reload;
#X msg 459 182 reload bang;
#X obj 387 221 r run_py_flute;
#X msg 387 246 run_py_flute bang;
#X msg 284 182 load-python-func bang;
#X obj 54 31 loadbang;
#X msg 338 362 espaco bang;
#X obj 557 164 r NumberOfSpaces;
#X msg 557 261 NumberOfSpaces \$1;
#X msg 550 124 espaco bang;
#X obj 596 209 count;
#X obj 550 93 t b b;
#X obj 550 38 r espacoSax;
#X obj 338 326 r espacoforSax;
#X msg 137 102 pd~ start ./sax.pd, f 41;
#X msg 54 63 pd~ start -nogui ./sax.pd, f 60;
#X obj 9 288 pd~ -ninsig 1 -noutsig 1 -fifo 20;
#X connect 0 0 22 0;
#X connect 1 0 22 0;
#X connect 3 0 4 0;
#X connect 4 0 22 0;
#X connect 5 0 10 0;
#X connect 6 0 7 0;
#X connect 7 0 22 0;
#X connect 8 0 9 0;
#X connect 9 0 22 0;
#X connect 10 0 22 0;
#X connect 11 0 21 0;
#X connect 12 0 22 0;
#X connect 13 0 14 0;
#X connect 13 0 16 0;
#X connect 14 0 22 0;
#X connect 15 0 22 0;
#X connect 16 0 14 0;
#X connect 17 0 15 0;
#X connect 17 1 16 0;
#X connect 18 0 17 0;
#X connect 19 0 12 0;
#X connect 20 0 22 0;
#X connect 21 0 22 0;
#X connect 22 0 2 0;
#X restore 228 344 pd Sax-Thread;
#N canvas 111 86 1799 823 Guitar-Thread 0;
#X msg 67 102 pd~ stop;
#X obj 9 16 inlet;
#X obj 9 313 outlet;
#X obj 178 157 r loadbang;
#X msg 178 182 loadbang bang;
#X obj 284 151 r load-python-func;
#X obj 459 157 r reload;
#X msg 459 182 reload bang;
#X obj 387 221 r run_py_flute;
#X msg 387 246 run_py_flute bang;
#X msg 284 182 load-python-func bang;
#X obj 54 31 loadbang;
#X msg 295 342 espaco bang;
#X msg 137 102 pd~ start -noaudio ./guitar.pd, f 41;
#X obj 710 32 r NumberOfSpaces;
#X msg 710 129 NumberOfSpaces \$1;
#X msg 605 118 espaco bang;
#X obj 749 77 count;
#X obj 605 87 t b b;
#X obj 605 32 r espacoGuitar;
#X obj 295 317 r espacoforGuitar;
#X msg 54 63 pd~ start -nogui ./guitar.pd, f 60;
#X obj 9 288 pd~ -ninsig 1 -noutsig 1 -fifo 20;
#X connect 0 0 22 0;
#X connect 1 0 22 0;
#X connect 3 0 4 0;
#X connect 4 0 22 0;
#X connect 5 0 10 0;
#X connect 6 0 7 0;
#X connect 7 0 22 0;
#X connect 8 0 9 0;
#X connect 9 0 22 0;
#X connect 10 0 22 0;
#X connect 11 0 21 0;
#X connect 12 0 22 0;
#X connect 13 0 22 0;
#X connect 14 0 15 0;
#X connect 14 0 17 0;
#X connect 15 0 22 0;
#X connect 16 0 22 0;
#X connect 17 0 15 0;
#X connect 18 0 16 0;
#X connect 18 1 17 0;
#X connect 19 0 18 0;
#X connect 20 0 12 0;
#X connect 21 0 22 0;
#X connect 22 0 2 0;
#X restore 331 344 pd Guitar-Thread;
#N canvas 162 49 1472 946 Cello-Thread 0;
#X msg 67 102 pd~ stop;
#X obj 9 16 inlet;
#X obj 10 403 outlet;
#X obj 136 155 r loadbang;
#X msg 136 180 loadbang bang;
#X obj 242 149 r load-python-func;
#X obj 417 155 r reload;
#X msg 417 180 reload bang;
#X obj 387 221 r run_py_flute;
#X msg 387 246 run_py_flute bang;
#X msg 242 180 load-python-func bang;
#X obj 54 31 loadbang;
#X msg 213 251 espaco bang;
#X msg 137 102 pd~ start -noaudio ./cello.pd, f 41;
#X obj 561 271 r NumberOfSpaces;
#X msg 561 368 NumberOfSpaces \$1;
#X msg 308 338 espaco bang;
#X obj 600 316 count;
#X obj 308 309 t b b;
#X obj 561 393 display;
#X obj 308 279 r espacoCello;
#X obj 213 226 r espacoforCello;
#X msg 54 63 pd~ start -nogui ./cello.pd, f 60;
#X obj 10 378 pd~ -ninsig 1 -noutsig 1 -fifo 20;
#X connect 0 0 23 0;
#X connect 1 0 23 0;
#X connect 3 0 4 0;
#X connect 4 0 23 0;
#X connect 5 0 10 0;
#X connect 6 0 7 0;
#X connect 7 0 23 0;
#X connect 8 0 9 0;
#X connect 9 0 23 0;
#X connect 10 0 23 0;
#X connect 11 0 22 0;
#X connect 12 0 23 0;
#X connect 13 0 23 0;
#X connect 14 0 15 0;
#X connect 14 0 17 0;
#X connect 15 0 19 0;
#X connect 15 0 23 0;
#X connect 16 0 23 0;
#X connect 17 0 15 0;
#X connect 18 0 16 0;
#X connect 18 1 17 0;
#X connect 20 0 18 0;
#X connect 21 0 12 0;
#X connect 22 0 23 0;
#X connect 23 0 2 0;
#X restore 452 344 pd Cello-Thread;
#X obj 8 417 print Fl;
#X obj 228 418 print Sx;
#X obj 331 419 print Gt;
#X obj 452 419 print Ce;
#X obj 54 85 tgl 20 0 empty empty empty 0 -10 0 12 #fcfcfc #000000 #000000 0 1;
#X obj 54 8 r NumberOfSpaces;
#X obj 8 145 spigot, f 7;
#X obj 229 6 r serverData;
#X obj 322 56 tgl 20 0 empty empty empty 0 -10 0 12 #fcfcfc #000000 #000000 0 1;
#X obj 322 6 r NumberOfSpaces;
#X obj 229 83 spigot, f 7;
#N canvas 315 76 1389 811 flute 0;
#X obj 13 233 zl iter 2;
#X msg 13 257 pitches \$1 \$2;
#X obj 122 87 list length;
#X obj 122 221 tgl 20 0 empty empty empty 0 -10 0 12 #fcfcfc #000000 #000000 0 1;
#X obj 13 105 spigot;
#X obj 13 18 inlet;
#X obj 13 320 outlet;
#X obj 173 222 sel 0;
#X msg 173 247 No pitches in Flute;
#X obj 375 30 r analiseNumber;
#X obj 439 315 s analiseNumber;
#X obj 439 236 tgl 20 0 empty empty empty 0 -10 0 12 #fcfcfc #000000 #000000 0 1;
#X obj 439 185 loadbang;
#X msg 439 210 1;
#X obj 439 286 counter 1 4;
#X obj 13 43 t a a b, f 31;
#X obj 357 100 int;
#X obj 122 124 expr if($f1 > 0 && $f2 == 1 \, 1 \, 0);
#X obj 439 261 metro 200;
#X connect 0 0 1 0;
#X connect 1 0 6 0;
#X connect 2 0 17 0;
#X connect 3 0 4 1;
#X connect 4 0 0 0;
#X connect 5 0 15 0;
#X connect 7 0 8 0;
#X connect 9 0 16 1;
#X connect 11 0 18 0;
#X connect 12 0 13 0;
#X connect 13 0 11 0;
#X connect 14 0 10 0;
#X connect 15 0 4 0;
#X connect 15 1 2 0;
#X connect 15 2 16 0;
#X connect 16 0 17 1;
#X connect 17 0 7 0;
#X connect 17 0 3 0;
#X connect 18 0 14 0;
#X restore 229 162 pd flute;
#N canvas 558 219 1036 625 Cello 0;
#X obj 6 163 zl iter 2;
#X msg 6 187 pitches \$1 \$2;
#X obj 120 87 list length;
#X obj 120 171 tgl 20 0 empty empty empty 0 -10 0 12 #fcfcfc #000000 #000000 0 1;
#X obj 13 105 spigot;
#X obj 13 18 inlet;
#X obj 29 248 outlet;
#X obj 147 204 sel 0;
#X obj 147 280 print Ce;
#X obj 355 28 r analiseNumber;
#X obj 120 146 expr if($f1 > 0 && $f2 == 4 \, 1 \, 0);
#X obj 337 109 int;
#X obj 13 57 t a a b, f 31;
#X connect 0 0 1 0;
#X connect 1 0 6 0;
#X connect 2 0 10 0;
#X connect 3 0 4 1;
#X connect 3 0 7 0;
#X connect 4 0 0 0;
#X connect 5 0 12 0;
#X connect 9 0 11 1;
#X connect 10 0 3 0;
#X connect 11 0 10 1;
#X connect 12 0 4 0;
#X connect 12 1 2 0;
#X connect 12 2 11 0;
#X restore 568 145 pd Cello;
#N canvas 0 0 1237 625 Guitar 0;
#X obj 6 163 zl iter 2;
#X msg 6 187 pitches \$1 \$2;
#X obj 120 87 list length;
#X obj 120 171 tgl 20 0 empty empty empty 0 -10 0 12 #fcfcfc #000000 #000000 0 1;
#X obj 13 105 spigot;
#X obj 13 18 inlet;
#X obj 29 248 outlet;
#X obj 147 204 sel 0;
#X obj 147 280 print Gt;
#X obj 400 43 r analiseNumber;
#X obj 120 146 expr if($f1 > 0 && $f2 == 3 \, 1 \, 0);
#X obj 355 105 int;
#X obj 13 57 t a a b, f 37;
#X connect 0 0 1 0;
#X connect 1 0 6 0;
#X connect 2 0 10 0;
#X connect 3 0 4 1;
#X connect 3 0 7 0;
#X connect 4 0 0 0;
#X connect 5 0 12 0;
#X connect 9 0 11 1;
#X connect 10 0 3 0;
#X connect 11 0 10 1;
#X connect 12 0 4 0;
#X connect 12 1 2 0;
#X connect 12 2 11 0;
#X restore 455 146 pd Guitar;
#N canvas 0 0 1017 625 Sax 0;
#X obj 6 163 zl iter 2;
#X msg 6 187 pitches \$1 \$2;
#X obj 120 87 list length;
#X obj 120 171 tgl 20 0 empty empty empty 0 -10 0 12 #fcfcfc #000000 #000000 0 1;
#X obj 13 105 spigot;
#X obj 13 18 inlet;
#X obj 29 248 outlet;
#X obj 147 204 sel 0;
#X obj 147 280 print Sx;
#X obj 362 65 r analiseNumber;
#X obj 327 107 int;
#X obj 13 57 t a a b, f 34;
#X obj 120 146 expr if($f1 > 0 && $f2 == 2 \, 1 \, 0);
#X connect 0 0 1 0;
#X connect 1 0 6 0;
#X connect 2 0 12 0;
#X connect 3 0 4 1;
#X connect 3 0 7 0;
#X connect 4 0 0 0;
#X connect 5 0 11 0;
#X connect 9 0 10 1;
#X connect 10 0 12 1;
#X connect 11 0 4 0;
#X connect 11 1 2 0;
#X connect 11 2 10 0;
#X connect 12 0 3 0;
#X restore 342 147 pd Sax;
#X obj 119 127 outlet;
#X obj 666 14 r espaco;
#X obj 97 395 s espacoforSax;
#X obj 268 389 s espacoforGuitar;
#X obj 532 418 s espacoforCello;
#X obj 532 384 bng 20 250 50 0 empty empty empty 0 -10 0 12 #fcfcfc #000000 #000000;
#X obj 268 367 bng 20 250 50 0 empty empty empty 0 -10 0 12 #fcfcfc #000000 #000000;
#X obj 97 368 bng 20 250 50 0 empty empty empty 0 -10 0 12 #fcfcfc #000000 #000000;
#X obj 666 47 bng 20 250 50 0 empty empty empty 0 -10 0 12 #fcfcfc #000000 #000000;
#X obj 486 300 s espacoforFlute;
#X obj 263 191 outlet;
#X obj 385 190 outlet;
#X obj 490 192 outlet;
#X obj 568 188 outlet;
#X obj 740 407 s espacoforSax;
#X obj 605 299 s espacoforGuitar;
#X obj 801 239 s espacoforCello;
#X obj 229 119 route FlutePeaks SaxPeaks GuitarPeaks CelloPeaks, f 65;
#X obj 801 204 spigot;
#X obj 840 169 tgl 20 0 empty empty empty 0 -10 0 12 #fcfcfc #000000 #000000 0 1;
#X obj 740 301 spigot;
#X obj 779 266 tgl 20 0 empty empty empty 0 -10 0 12 #fcfcfc #000000 #000000 0 1;
#X obj 605 272 spigot;
#X obj 644 237 tgl 20 0 empty empty empty 0 -10 0 12 #fcfcfc #000000 #000000 0 1;
#X obj 528 271 spigot;
#X obj 567 236 tgl 20 0 empty empty empty 0 -10 0 12 #fcfcfc #000000 #000000 0 1;
#X obj 747 1 loadbang;
#X msg 747 38 1;
#X obj 322 31 expr if($f1 > 0 \, 1 \, 0);
#X obj 534 49 loadbang;
#X msg 534 74 1;
#X msg 309 254 9;
#X connect 0 0 13 0;
#X connect 1 0 2 0;
#X connect 2 0 3 0;
#X connect 2 0 4 0;
#X connect 2 0 5 0;
#X connect 2 0 6 0;
#X connect 3 0 7 0;
#X connect 4 0 8 0;
#X connect 5 0 9 0;
#X connect 6 0 10 0;
#X connect 11 0 13 1;
#X connect 11 0 22 0;
#X connect 13 0 1 0;
#X connect 14 0 17 0;
#X connect 15 0 17 1;
#X connect 16 0 50 0;
#X connect 17 0 39 0;
#X connect 18 0 32 0;
#X connect 18 0 3 0;
#X connect 19 0 35 0;
#X connect 19 0 6 0;
#X connect 20 0 34 0;
#X connect 20 0 5 0;
#X connect 21 0 33 0;
#X connect 21 0 4 0;
#X connect 23 0 30 0;
#X connect 27 0 26 0;
#X connect 28 0 25 0;
#X connect 29 0 24 0;
#X connect 30 0 40 0;
#X connect 30 0 42 0;
#X connect 30 0 44 0;
#X connect 30 0 46 0;
#X connect 39 0 18 0;
#X connect 39 1 21 0;
#X connect 39 2 20 0;
#X connect 39 3 19 0;
#X connect 40 0 38 0;
#X connect 41 0 40 1;
#X connect 42 0 36 0;
#X connect 43 0 42 1;
#X connect 44 0 37 0;
#X connect 45 0 44 1;
#X connect 46 0 31 0;
#X connect 47 0 46 1;
#X connect 48 0 49 0;
#X connect 49 0 41 0;
#X connect 49 0 43 0;
#X connect 49 0 45 0;
#X connect 49 0 47 0;
#X connect 50 0 15 0;
#X connect 51 0 52 0;
#X connect 52 0 15 0;
#X connect 53 0 4 0;
#X coords 0 0 0 0 0 0 0;
#X restore 8 216 pd python-threads;
#X f 22;
#X obj 158 305 display;
#X obj 310 304 display;
#X obj 461 304 display;
#N canvas 86 92 450 300 config 0;
#X obj 18 14 declare -path else;
#X obj 15 39 declare -path cyclone;
#X restore 236 15 pd config;
#X obj 7 395 display;
#X obj 8 240 tgl 20 0 empty empty empty 0 -10 0 12 #fcfcfc #000000 #000000 0 1;
#X obj 45 239 bng 20 250 50 0 empty empty empty 0 -10 0 12 #fcfcfc #000000 #000000;
#X obj 84 239 bng 20 250 50 0 empty empty empty 0 -10 0 12 #fcfcfc #000000 #000000;
#X obj 121 239 bng 20 250 50 0 empty empty empty 0 -10 0 12 #fcfcfc #000000 #000000;
#X obj 159 239 bng 20 250 50 0 empty empty empty 0 -10 0 12 #fcfcfc #000000 #000000;
#X obj 7 369 r fastGesture;
#X obj 461 349 print Ce;
#X obj 310 348 print Gt;
#X obj 158 345 print Sx;
#X obj 7 342 print Fl;
#X obj 485 73 loadbang;
#X msg 485 123 \; pd fast-forward 1;
#X connect 2 0 12 0;
#X connect 2 1 9 0;
#X connect 4 0 5 0;
#X connect 6 0 2 0;
#X connect 8 0 15 0;
#X connect 13 0 14 0;
#X connect 13 1 16 0;
#X connect 13 2 17 0;
#X connect 13 3 18 0;
#X connect 14 0 30 0;
#X connect 15 0 21 0;
#X connect 15 1 22 0;
#X connect 15 2 23 0;
#X connect 15 3 24 0;
#X connect 15 4 25 0;
#X connect 16 0 29 0;
#X connect 17 0 28 0;
#X connect 18 0 27 0;
#X connect 26 0 20 0;
#X connect 31 0 32 0;
