#N canvas 809 108 761 627 12;
#N canvas 504 69 1285 894 SpectralImage 0;
#X obj 353 6 inlet;
#X obj 15 420 py4pd;
#X obj 15 83 spigot;
#X obj 80 7 r done;
#N canvas 387 288 1013 432 clean 0;
#X obj 4 5 inlet;
#X obj 4 179 py4pd;
#X msg 4 31 run;
#X msg 77 137 reload;
#X obj 77 107 r reload;
#X obj 86 11 r load-python-func;
#X msg 86 45 set main clear_notesAndAmps;
#X connect 0 0 2 0;
#X connect 2 0 1 0;
#X connect 3 0 1 0;
#X connect 4 0 3 0;
#X connect 5 0 6 0;
#X connect 6 0 1 0;
#X restore 504 263 pd clean;
#X obj 26 368 r load-python-func;
#X msg 353 238 1;
#X obj 353 263 s done;
#X obj 15 4 inlet;
#X obj 80 32 t f f;
#X obj 80 112 sel 0;
#X obj 353 213 t b b b, f 22;
#X msg 429 325 0;
#X obj 429 350 s done;
#X obj 429 300 delay 300 1 msec;
#X obj 353 125 spigot, f 17;
#X obj 469 93 tgl 20 0 empty empty empty 0 -10 0 12 #fcfcfc #000000 #000000 0 1;
#X obj 80 151 t b b, f 15;
#X obj 469 13 r save_pitches;
#X obj 182 296 s save_pitches;
#X msg 182 177 0;
#X msg 15 331 run \$1 \$2;
#X msg 26 390 set main set_notesAndAmps;
#X obj 80 203 outlet;
#X connect 0 0 15 0;
#X connect 2 0 21 0;
#X connect 3 0 9 0;
#X connect 5 0 22 0;
#X connect 6 0 7 0;
#X connect 8 0 2 0;
#X connect 9 0 10 0;
#X connect 9 1 2 1;
#X connect 10 0 17 0;
#X connect 11 0 6 0;
#X connect 11 1 14 0;
#X connect 11 2 4 0;
#X connect 12 0 13 0;
#X connect 14 0 12 0;
#X connect 15 0 11 0;
#X connect 16 0 15 1;
#X connect 17 0 23 0;
#X connect 17 1 20 0;
#X connect 18 0 16 0;
#X connect 20 0 19 0;
#X connect 21 0 1 0;
#X connect 22 0 1 0;
#X restore 57 82 pd SpectralImage;
#X obj 57 126 bng 20 250 50 0 empty empty empty 0 -10 0 12 #fcfcfc #000000 #000000;
#N canvas 380 97 1530 887 GestGeneration 1;
#X obj 33 187 py4pd;
#X obj 33 331 outlet;
#X msg 33 264 \$1;
#X obj 260 11 r loadbang;
#N canvas 0 50 450 250 (subpatch) 0;
#X text 0 0 plugdatainfo <?xml version="1.0" encoding="UTF-8"?> <plugdatainfo/>;
#X coords 0 1 100 -1 1 1 1;
#X restore 0 0 graph;
#X obj 138 11 r NumberOfSpaces;
#X msg 138 59 set run \$1;
#X msg 260 70 run 0;
#X msg 569 101 reload;
#X obj 569 71 r reload;
#X obj 339 11 r load-python-func;
#X obj 41 151 r py_gerenate_gestures;
#X obj 260 188 s py_gerenate_gestures;
#X obj 119 333 s save_pitches;
#X msg 119 253 1;
#X obj 33 11 inlet;
#X msg 339 71 set main FLUTE_gesto_generation;
#X obj 173 247 print;
#X msg 33 115 run 1;
#X obj 361 283 loadbang;
#X msg 361 308 \; pd dsp 1;
#X msg 185 196 run -1;
#X connect 0 0 2 0;
#X connect 0 0 14 0;
#X connect 0 0 17 0;
#X connect 2 0 1 0;
#X connect 3 0 7 0;
#X connect 5 0 6 0;
#X connect 6 0 18 0;
#X connect 7 0 12 0;
#X connect 8 0 12 0;
#X connect 9 0 8 0;
#X connect 10 0 16 0;
#X connect 11 0 0 0;
#X connect 14 0 13 0;
#X connect 15 0 18 0;
#X connect 16 0 12 0;
#X connect 18 0 0 0;
#X connect 19 0 20 0;
#X connect 21 0 0 0;
#X coords 0 443 0 0 0 0 0;
#X restore 57 167 pd GestGeneration;
#X obj 57 217 stdout;
#X obj 216 115 r loadbang;
#X obj 216 140 bng 20 250 50 0 empty empty empty 0 -10 0 12 #fcfcfc #000000 #000000;
#X obj 57 22 r pitches;
#X obj 166 52 bng 20 250 50 0 empty empty empty 0 -10 0 12 #fcfcfc #000000 #000000;
#X obj 166 23 r espaco;
#X connect 0 0 1 0;
#X connect 1 0 2 0;
#X connect 2 0 3 0;
#X connect 4 0 5 0;
#X connect 6 0 0 0;
#X connect 7 0 0 1;
#X connect 8 0 7 0;
