#N canvas 506 24 1295 843 12;
#X declare -path else;
#X declare -path cyclone;
#N canvas 519 187 695 520 (subpatch) 0;
#X obj 22 108 s loadbang;
#X obj 22 23 bng 35 250 50 0 empty empty empty 0 -10 0 12 #7c7c7c #ff0400 #000000;
#X obj 98 108 s multi_record;
#X msg 98 68 1;
#X msg 208 108 \; pd dsp 1;
#X obj 135 181 s audio_done;
#N canvas 0 50 450 250 (subpatch) 0;
#X text 0 0 plugdatainfo;
#X coords 0 1 100 -1 1 1 1;
#X restore 0 0 graph;
#X connect 1 0 0 0;
#X connect 1 0 3 0;
#X connect 1 0 4 0;
#X connect 1 0 5 0;
#X connect 3 0 2 0;
#X coords 0 -1 1 1 40 42 1 20 20;
#X restore 146 5 pd;
#X text 187 16 <= CLICK HERE TO START;
#N canvas 265 106 1351 786 (subpatch) 0;
#X obj 33 185 py4pd;
#X obj 33 331 outlet;
#X msg 33 264 \$1;
#X obj 275 11 r loadbang;
#X obj 102 304 else/display;
#N canvas 0 50 450 250 (subpatch) 0;
#X text 0 0 plugdatainfo;
#X coords 0 1 100 -1 1 1 1;
#X restore 0 0 graph;
#X obj 102 251 loadbang;
#X msg 102 276 Flute - press bang;
#X obj 325 70 bng 20 250 50 0 empty empty empty 0 -10 0 12 #fcfcfc #000000 #000000;
#X obj 53 220 s run_py_saxofone;
#X obj 149 11 r NumberOfSpaces;
#X obj 33 36 bng 20 250 50 0 empty empty empty 0 -10 0 12 #fcfcfc #000000 #000000;
#X msg 149 59 set run \$1;
#X msg 33 115 run 3;
#X obj 275 36 t b b;
#X msg 275 70 run 0;
#X msg 325 95 set main FLUTE_gesto_generation;
#X obj 33 11 r run_py_guitar;
#X msg 87 145 reload;
#X obj 87 115 r reload;
#X connect 0 0 2 0;
#X connect 0 0 9 0;
#X connect 2 0 1 0;
#X connect 2 0 4 0;
#X connect 3 0 14 0;
#X connect 6 0 7 0;
#X connect 7 0 4 0;
#X connect 8 0 16 0;
#X connect 10 0 12 0;
#X connect 11 0 13 0;
#X connect 12 0 13 0;
#X connect 13 0 0 0;
#X connect 14 0 15 0;
#X connect 14 1 8 0;
#X connect 15 0 0 0;
#X connect 16 0 0 0;
#X connect 17 0 11 0;
#X connect 18 0 0 0;
#X connect 19 0 18 0;
#X coords 0 -1 1 1 145 30 2 100 300;
#X restore 210 345 pd;
#N canvas 156 25 1107 762 (subpatch) 0;
#X msg 31 82 run;
#X obj 32 227 py4pd;
#X msg 32 252 \$1;
#X obj 114 28 bng 20 250 50 0 empty empty empty 0 -10 0 12 #fcfcfc #000000 #000000;
#X obj 31 19 r loadbang;
#X obj 31 58 t b b, f 38;
#X obj 106 274 else/display;
#X msg 294 88 set main my_ip;
#N canvas 0 50 450 250 (subpatch) 0;
#X text 0 0 plugdatainfo;
#X coords 0 1 100 -1 1 1 1;
#X restore 0 0 graph;
#X obj 272 153 loadbang;
#X msg 272 178 Use the browser!;
#X connect 0 0 1 0;
#X connect 1 0 2 0;
#X connect 2 0 6 0;
#X connect 3 0 5 0;
#X connect 4 0 5 0;
#X connect 5 0 0 0;
#X connect 5 1 7 0;
#X connect 7 0 1 0;
#X connect 9 0 10 0;
#X connect 10 0 6 0;
#X coords 0 -1 1 1 135 30 2 100 270;
#X restore 352 8 pd;
#X text 388 40 IP Address;
#N canvas 793 298 755 478 input 0;
#X obj 38 133 readsf~;
#X obj 84 164 s audio_done;
#X obj 38 35 t b b;
#X obj 38 7 r audio_done;
#X obj 38 197 outlet~;
#X msg 38 66 1;
#X msg 77 62 open ASax-mul-F3+-C#5-F#4-F#5-mf.aif;
#N canvas 0 50 450 250 (subpatch) 0;
#X text 0 0 plugdatainfo <?xml version="1.0" encoding="UTF-8"?> <plugdatainfo/>;
#X coords 0 1 100 -1 1 1 1;
#X restore 0 0 graph;
#X connect 0 0 4 0;
#X connect 0 1 1 0;
#X connect 2 0 5 0;
#X connect 2 1 6 0;
#X connect 3 0 2 0;
#X connect 5 0 0 0;
#X connect 6 0 0 0;
#X restore 11 6 pd input;
#N canvas 0 50 450 250 (subpatch) 0;
#X text 0 0 plugdatainfo <?xml version="1.0" encoding="UTF-8"?> <plugdatainfo/>;
#X coords 0 1 100 -1 1 1 1;
#X restore 0 0 graph;
#N canvas 42 142 450 300 config 0;
#X obj 18 56 declare -path else;
#X obj 18 78 declare -path cyclone;
#X restore 74 6 pd config;
#N canvas 1166 158 466 437 (subpatch) 0;
#X obj 13 12 key;
#X obj 13 37 sel 32;
#X obj 13 117 display;
#X msg 13 62 SPACE;
#X obj 62 117 nbx 3 22 -1e+37 1e+37 0 0 empty empty empty 0 -10 0 12 #fcfcfc #000000 #000000 0 256;
#X obj 67 87 count;
#X obj 62 186 outlet;
#X obj 81 154 s NumberOfSpaces;
#X obj 87 18 r loadbang;
#X obj 143 42 loadbang;
#X msg 143 67 SPACE;
#X msg 156 118 1;
#X msg 87 43 0;
#X connect 0 0 1 0;
#X connect 1 0 3 0;
#X connect 1 0 5 0;
#X connect 3 0 2 0;
#X connect 4 0 6 0;
#X connect 4 0 7 0;
#X connect 5 0 4 0;
#X connect 8 0 12 0;
#X connect 9 0 10 0;
#X connect 10 0 2 0;
#X connect 11 0 7 0;
#X connect 12 0 5 0;
#X coords 0 -1 1 1 100 27 1 10 115;
#X restore 120 167 pd;
#N canvas 444 153 1113 660 SpectralImage 0;
#X obj 15 175 unpack f f f f;
#X obj 15 4 inlet~;
#X obj 241 6 inlet;
#X obj 47 287 py4pd;
#X obj 58 239 r loadbang;
#X obj 15 105 spigot;
#X msg 241 110 1;
#X obj 54 77 r done;
#X obj 241 43 t b b, f 9;
#N canvas 196 49 514 432 clean 0;
#X obj 4 5 inlet;
#X obj 4 133 py4pd;
#X msg 4 31 run;
#X obj 46 5 r loadbang;
#X msg 46 32 set main clear_global_notes;
#X msg 77 91 reload;
#X obj 77 61 r reload;
#X connect 0 0 2 0;
#X connect 2 0 1 0;
#X connect 3 0 4 0;
#X connect 4 0 1 0;
#X connect 5 0 1 0;
#X connect 6 0 5 0;
#X restore 331 77 pd clean;
#X obj 301 265 print NOTICE;
#X obj 195 225 s run_py_flute;
#X msg 58 261 set main set_global_notes;
#X obj 241 80 t b b, f 9;
#X obj 301 115 delay 10 1 msec;
#X msg 301 140 0;
#X msg 301 225 Pitches Updated!;
#X obj 301 165 t b b f, f 19;
#X obj 431 225 s done;
#X msg 47 211 run \$1;
#X obj 15 50 sigmund~ -npeak 40 peaks;
#X connect 0 1 19 0;
#X connect 1 0 20 0;
#X connect 2 0 8 0;
#X connect 4 0 12 0;
#X connect 5 0 0 0;
#X connect 6 0 5 1;
#X connect 7 0 5 1;
#X connect 8 0 13 0;
#X connect 8 1 9 0;
#X connect 12 0 3 0;
#X connect 13 0 6 0;
#X connect 13 1 14 0;
#X connect 14 0 15 0;
#X connect 15 0 17 0;
#X connect 16 0 10 0;
#X connect 17 0 11 0;
#X connect 17 1 16 0;
#X connect 17 2 18 0;
#X connect 19 0 3 0;
#X connect 20 0 5 0;
#X restore 11 220 pd SpectralImage;
#N canvas 722 275 770 581 (subpatch) 0;
#X obj 81 6 inlet~;
#X obj 81 194 outlet~;
#X obj 32 35 vu 20 120 empty empty -1 -10 0 12 #404040 #000000 0 0;
#X obj 9 36 vsl 20 118 0 2 0 0 empty empty empty 0 -9 0 12 #fcfcfc #000000 #000000 0 1;
#N canvas 329 161 1014 806 vu 0;
#X obj 59 129 env~ 1024;
#X obj 161 111 abs~;
#X obj 161 213 snapshot~;
#X obj 161 256 rmstodb;
#X obj 161 21 inlet~;
#X obj 161 288 - 100;
#X obj 59 287 - 100;
#X obj 59 361 outlet;
#X obj 161 361 outlet;
#X text 344 307 Check the help file of env~ and slop~ for more details., f 31;
#X obj 239 89 expr 1000 / $f1;
#X floatatom 239 117 5 0 0 0 - - - 0;
#X obj 161 146 slop~ 0 0 0 0 1e+09;
#X obj 239 18 inlet;
#X floatatom 239 57 5 0 0 0 - - - 0;
#X text 359 89 convert to hz;
#X text 282 118 hz;
#X text 284 57 peak decay time in ms;
#X obj 59 171 t f b;
#X text 345 132 The env~ object is dedicated to RMS analysis. Its output is in dB (0-100 range \, pd style) but needs to be converted to dBFS (and we do that by simply subtracting 100)., f 31;
#X text 345 225 The slop~ object is used here for peak detection. We need to convert the output to dB with rmstodb and also subtract by 100 to convert it to dBFS., f 31;
#X connect 0 0 18 0;
#X connect 1 0 12 0;
#X connect 2 0 3 0;
#X connect 3 0 5 0;
#X connect 4 0 0 0;
#X connect 4 0 1 0;
#X connect 5 0 8 0;
#X connect 6 0 7 0;
#X connect 10 0 11 0;
#X connect 11 0 12 3;
#X connect 12 0 2 0;
#X connect 13 0 14 0;
#X connect 14 0 10 0;
#X connect 18 0 6 0;
#X connect 18 1 2 0;
#X restore 97 100 pd vu;
#X obj 129 32 loadbang;
#X msg 129 77 100;
#X obj 81 43 *~;
#X msg 163 57 1;
#X connect 0 0 7 0;
#X connect 3 0 7 1;
#X connect 4 0 2 0;
#X connect 4 1 2 1;
#X connect 5 0 6 0;
#X connect 5 0 8 0;
#X connect 6 0 4 1;
#X connect 7 0 4 0;
#X connect 7 0 1 0;
#X connect 8 0 3 0;
#X coords 0 -1 1 1 47 130 2 8 33;
#X restore 11 63 pd;
#X obj 120 197 bng 20 250 50 0 empty empty empty 0 -10 0 12 #fcfcfc #000000 #000000;
#N canvas 265 106 1351 786 (subpatch) 0;
#X obj 33 197 py4pd;
#X obj 33 331 outlet;
#X msg 33 264 \$1;
#X obj 347 56 r loadbang;
#X obj 102 304 else/display;
#N canvas 0 50 450 250 (subpatch) 0;
#X text 0 0 plugdatainfo;
#X coords 0 1 100 -1 1 1 1;
#X restore 0 0 graph;
#X obj 102 251 loadbang;
#X obj 397 115 bng 20 250 50 0 empty empty empty 0 -10 0 12 #fcfcfc #000000 #000000;
#X obj 33 11 r run_py_flute;
#X obj 138 11 r NumberOfSpaces;
#X obj 33 36 bng 20 250 50 0 empty empty empty 0 -10 0 12 #fcfcfc #000000 #000000;
#X msg 138 59 set run \$1;
#X msg 33 115 run 3;
#X obj 347 81 t b b;
#X msg 347 115 run 0;
#X msg 397 140 set main GUITAR_gesto_generation;
#X msg 102 276 Guitar - press bang;
#X obj 53 220 s run_py_sax;
#X msg 88 145 reload;
#X obj 88 115 r reload;
#X connect 0 0 2 0;
#X connect 0 0 17 0;
#X connect 2 0 1 0;
#X connect 2 0 4 0;
#X connect 3 0 13 0;
#X connect 6 0 16 0;
#X connect 7 0 15 0;
#X connect 8 0 10 0;
#X connect 9 0 11 0;
#X connect 10 0 12 0;
#X connect 11 0 12 0;
#X connect 12 0 0 0;
#X connect 13 0 14 0;
#X connect 13 1 7 0;
#X connect 14 0 0 0;
#X connect 15 0 0 0;
#X connect 16 0 4 0;
#X connect 18 0 0 0;
#X connect 19 0 18 0;
#X coords 0 -1 1 1 145 30 2 100 300;
#X restore 210 274 pd;
#X text 361 279 Flute;
#X text 361 350 Guitar;
#N canvas 265 106 1351 786 (subpatch) 0;
#X obj 33 185 py4pd;
#X obj 33 331 outlet;
#X msg 33 264 \$1;
#X obj 261 11 r loadbang;
#X obj 102 304 else/display;
#N canvas 0 50 450 250 (subpatch) 0;
#X text 0 0 plugdatainfo;
#X coords 0 1 100 -1 1 1 1;
#X restore 0 0 graph;
#X obj 102 251 loadbang;
#X obj 311 70 bng 20 250 50 0 empty empty empty 0 -10 0 12 #fcfcfc #000000 #000000;
#X obj 138 11 r NumberOfSpaces;
#X obj 33 36 bng 20 250 50 0 empty empty empty 0 -10 0 12 #fcfcfc #000000 #000000;
#X msg 138 59 set run \$1;
#X msg 33 115 run 3;
#X obj 261 36 t b b;
#X msg 261 70 run 0;
#X msg 102 276 Guitar - press bang;
#X obj 33 11 r run_py_sax;
#X msg 311 95 set main SAX_gesto_generation;
#X obj 53 220 s run_py_guitar;
#X msg 83 144 reload;
#X obj 83 114 r reload;
#X connect 0 0 2 0;
#X connect 0 0 17 0;
#X connect 2 0 1 0;
#X connect 2 0 4 0;
#X connect 3 0 12 0;
#X connect 6 0 14 0;
#X connect 7 0 16 0;
#X connect 8 0 10 0;
#X connect 9 0 11 0;
#X connect 10 0 11 0;
#X connect 11 0 0 0;
#X connect 12 0 13 0;
#X connect 12 1 7 0;
#X connect 13 0 0 0;
#X connect 14 0 4 0;
#X connect 15 0 9 0;
#X connect 16 0 0 0;
#X connect 18 0 0 0;
#X connect 19 0 18 0;
#X coords 0 -1 1 1 145 30 2 100 300;
#X restore 210 311 pd;
#X text 361 316 Sax;
#X obj 263 139 s reload;
#X obj 263 100 bng 20 250 50 0 empty empty empty 0 -10 0 12 #fcfcfc #000000 #000000;
#X connect 5 0 10 0;
#X connect 8 0 11 0;
#X connect 10 0 9 0;
#X connect 11 0 9 1;
#X connect 18 0 17 0;
