#N canvas 506 24 1304 877 12;
#N canvas 519 187 695 520 (subpatch) 1;
#X obj 29 208 s loadbang;
#X obj 22 23 bng 35 250 50 0 empty empty empty 0 -10 0 12 #dfdfdf #ff0400 #000000;
#X obj 98 108 s multi_record;
#X msg 98 68 1;
#X msg 208 108 \; pd dsp 1;
#X obj 135 181 s audio_done;
#N canvas 0 50 450 250 (subpatch) 0;
#X text 0 0 plugdatainfo <?xml version="1.0" encoding="UTF-8"?> <plugdatainfo/>;
#X coords 0 1 100 -1 1 1 1;
#X restore 0 0 graph;
#X connect 1 0 0 0;
#X connect 1 0 3 0;
#X connect 1 0 4 0;
#X connect 1 0 5 0;
#X connect 3 0 2 0;
#X coords 0 -1 1 1 40 42 1 18 20;
#X restore 16 7 pd;
#X obj 40 375 bng 20 250 50 0 empty empty empty 0 -10 0 12 #fcfcfc #000000 #000000;
#X text 60 17 <= CLICK HERE TO START;
#N canvas 156 25 1416 712 (subpatch) 1;
#X obj 31 169 py4pd;
#X obj 31 245 outlet;
#X obj 31 58 t b b b, f 47;
#X obj 109 16 bng 20 250 50 0 empty empty empty 0 -10 0 12 #fcfcfc #000000 #000000;
#X obj 31 16 r loadbang;
#X obj 31 81 inlet;
#X msg 194 96 set main gesto_gerenation;
#X obj 455 16 inlet;
#X obj 452 50 t b b;
#X msg 484 90 reload;
#N canvas 0 50 450 250 (subpatch) 0;
#X text 0 0 plugdatainfo <?xml version="1.0" encoding="UTF-8"?> <plugdatainfo/>;
#X coords 0 1 100 -1 1 1 1;
#X restore 0 0 graph;
#X symbolatom 103 301 19 0 0 0 - - - 0;
#X obj 145 197 print;
#X msg 31 126 run 2, f 7;
#X connect 0 0 12 0;
#X connect 0 0 11 0;
#X connect 2 1 6 0;
#X connect 3 0 2 0;
#X connect 4 0 2 0;
#X connect 5 0 13 0;
#X connect 6 0 0 0;
#X connect 7 0 8 0;
#X connect 8 0 2 0;
#X connect 8 1 9 0;
#X connect 9 0 0 0;
#X connect 13 0 0 0;
#X coords 0 -1 1 1 138 27 2 101 297;
#X restore 37 402 pd;
#N canvas 156 25 1107 762 (subpatch) 0;
#X msg 31 82 run;
#X obj 32 227 py4pd;
#X obj 114 28 bng 20 250 50 0 empty empty empty 0 -10 0 12 #fcfcfc #000000 #000000;
#X obj 31 19 r loadbang;
#X obj 31 58 t b b, f 38;
#X msg 294 88 set main my_ip;
#N canvas 0 50 450 250 (subpatch) 0;
#X text 0 0 plugdatainfo <?xml version="1.0" encoding="UTF-8"?> <plugdatainfo/>;
#X coords 0 1 100 -1 1 1 1;
#X restore 0 0 graph;
#X msg 80 295 192.168.15.6:8000;
#X msg 32 264 set \$1, f 8;
#X obj 32 344 outlet;
#X connect 0 0 1 0;
#X connect 1 0 8 0;
#X connect 2 0 4 0;
#X connect 3 0 4 0;
#X connect 4 0 0 0;
#X connect 4 1 5 0;
#X connect 5 0 1 0;
#X connect 8 0 7 0;
#X connect 8 0 9 0;
#X coords 0 -1 1 1 252 51 0;
#X restore 420 7 pd;
#X text 457 7 IP Address;
#N canvas 793 298 728 592 input 0;
#X obj 38 133 readsf~;
#X obj 84 164 s audio_done;
#X obj 38 35 t b b;
#X obj 38 7 r audio_done;
#X obj 38 197 outlet~;
#X msg 38 66 1;
#X msg 77 62 open ASax-mul-F3+-C#5-F#4-F#5-mf.aif;
#N canvas 0 50 450 250 (subpatch) 0;
#X text 0 0 plugdatainfo <?xml version="1.0" encoding="UTF-8"?> <plugdatainfo/>;
#X coords 0 1 100 -1 1 1 1;
#X restore 0 0 graph;
#X connect 0 0 4 0;
#X connect 0 1 1 0;
#X connect 2 0 5 0;
#X connect 2 1 6 0;
#X connect 3 0 2 0;
#X connect 5 0 0 0;
#X connect 6 0 0 0;
#X restore 128 42 pd input;
#X obj 67 220 dac~;
#X obj 129 74 else/gain~ 1 0 20 0 0,719;
#N canvas 234 58 1459 878 PartialTracking 0;
#X obj 15 78 unpack f f f f, f 23;
#X obj 15 4 inlet~;
#X obj 241 11 inlet;
#X obj 68 324 py4pd;
#X obj 124 251 r loadbang;
#N canvas 0 50 450 250 (subpatch) 0;
#X array freq 20 float 3;
#A 0 0 750 0 0 2456 0 0 0 0 0 0 0 0 0 0 0 0 0 0 0;
#X coords 0 10 20 10000 200 140 1 0 0;
#X restore 504 20 graph;
#X obj 68 189 t f b, f 12;
#X obj 389 247 else/count;
#X obj 68 154 spigot;
#X obj 181 110 t b b, f 9;
#X msg 181 135 1;
#X msg 241 137 0;
#X obj 389 355 s done;
#X msg 389 327 0;
#X obj 107 112 r done;
#X msg 421 300 1;
#X obj 389 274 sel 19;
#X msg 68 232 run \$1;
#X obj 241 43 t b b;
#N canvas 0 0 677 491 clean 0;
#X obj 48 22 inlet;
#X obj 48 130 py4pd;
#X msg 48 48 run;
#X obj 143 21 r loadbang;
#X msg 143 74 set main clear_global_notes;
#X connect 0 0 2 0;
#X connect 2 0 1 0;
#X connect 3 0 4 0;
#X connect 4 0 1 0;
#X restore 273 73 pd clean;
#X obj 15 50 sigmund~ -npeak 20 peaks;
#X msg 124 276 set main global_notes;
#N canvas 0 50 450 250 (subpatch) 0;
#X text 0 0 plugdatainfo <?xml version="1.0" encoding="UTF-8"?> <plugdatainfo/>;
#X coords 0 1 100 -1 1 1 1;
#X restore 0 0 graph;
#X connect 0 1 8 0;
#X connect 1 0 20 0;
#X connect 2 0 18 0;
#X connect 4 0 21 0;
#X connect 6 0 17 0;
#X connect 6 1 7 0;
#X connect 7 0 16 0;
#X connect 8 0 6 0;
#X connect 9 0 10 0;
#X connect 9 1 11 0;
#X connect 10 0 8 1;
#X connect 11 0 7 0;
#X connect 13 0 12 0;
#X connect 14 0 8 1;
#X connect 16 0 13 0;
#X connect 16 0 15 0;
#X connect 17 0 3 0;
#X connect 18 0 9 0;
#X connect 18 1 19 0;
#X connect 20 0 0 0;
#X connect 21 0 3 0;
#X restore 124 220 pd PartialTracking;
#X obj 220 163 bng 34 250 50 0 empty empty empty 0 -10 0 12 #fcfcfc #000000 #000000;
#X obj 420 86 r loadbang;
#X obj 420 176 py4pd;
#X msg 461 141 run;
#X msg 420 111 set main get_global_notes;
#X obj 153 371 bng 20 250 50 0 empty empty empty 0 -10 0 12 #fcfcfc #000000 #000000;
#N canvas 0 50 450 250 (subpatch) 0;
#X text 0 0 plugdatainfo <?xml version="1.0" encoding="UTF-8"?> <plugdatainfo><InfoObj ID="16.L....z..........A....." Updated="0" Segmented="1" Path="32.................H....b8+++OB....W+++++....."/></plugdatainfo>;
#X coords 0 1 100 -1 1 1 1;
#X restore 0 0 graph;
#X obj 420 205 print;
#X msg 420 42 192.168.15.6:8000, f 24;
#X obj 220 49 key;
#X obj 220 78 sel 32;
#X obj 37 339 t b b, f 18;
#X obj 37 257 bng 75 250 50 0 empty empty empty 17 7 0 10 #e4e4e4 #000000 #5a5a5a;
#X connect 1 0 3 0;
#X connect 4 0 18 0;
#X connect 6 0 8 0;
#X connect 8 0 9 0;
#X connect 8 0 7 1;
#X connect 8 0 7 0;
#X connect 10 0 9 1;
#X connect 11 0 14 0;
#X connect 12 0 17 0;
#X connect 13 0 12 0;
#X connect 14 0 12 0;
#X connect 15 0 3 1;
#X connect 19 0 20 0;
#X connect 20 0 10 0;
#X connect 21 0 1 0;
#X connect 21 1 15 0;
#X connect 22 0 21 0;
